<?xml version="1.0" encoding="utf-8"?>
<!-- Generator: Adobe Illustrator 22.1.0, SVG Export Plug-In . SVG Version: 6.00 Build 0)  -->
<svg version="1.1" id="Слой_1" xmlns="http://www.w3.org/2000/svg" xmlns:xlink="http://www.w3.org/1999/xlink" x="0px" y="0px"
	 viewBox="0 0 852 104.1" style="enable-background:new 0 0 852 104.1;" xml:space="preserve">
<style type="text/css">
	.st0{fill:#FFFFFF;}
</style>
<g>
	<g>
		<path class="st0" d="M94.2,69.3h-91l1-4.9h91L94.2,69.3z M51.2,10h49.9L90.2,61.2H16.6l-4.8-6l3.7-17.5h28.9l-2.7,12.5h21.9
			L69.8,21h-21L51.2,10z M107.4,6.8h-91l1.1-4.9h91L107.4,6.8z"/>
		<path class="st0" d="M99.3,64.4h85.9l-1,4.9H98.3L99.3,64.4z M116.5,10H191l-2.5,11.7h-45.7l-1.7,7.9h44.1l-2.5,11.7h-44.1
			l-1.7,8.1h45.7l-2.5,11.7h-74.5L116.5,10z M112.5,1.9h85.9l-1.1,4.9h-85.9L112.5,1.9z"/>
		<path class="st0" d="M222.7,64.4h91l-1,4.9h-91L222.7,64.4z M287.1,26.8l1.2-5.8h-21.9l-2,9.2h50.8l-6.5,31h-79.6l3.5-16.8h28.9
			l-1.2,5.9h21.9l2-9.1h-50.8l6.6-31.1h79.6L316,26.8H287.1z M236,1.9h91l-1.1,4.9h-91L236,1.9z"/>
		<path class="st0" d="M317.7,64.4h91l-1,4.9h-91L317.7,64.4z M335,10h28.9l-8.6,40.2h21.9l8.6-40.2h28.9l-10.9,51.1h-79.6L335,10z
			 M331,1.9h91L421,6.8h-91L331,1.9z"/>
		<path class="st0" d="M412.8,64.4H453l-1,4.9h-40.2L412.8,64.4z M430,10h28.9l-10.9,51.1h-28.9L430,10z M426.1,1.9h40.3l-1.1,4.9
			H425L426.1,1.9z"/>
		<path class="st0" d="M457.1,64.4h91l-1,4.9h-91L457.1,64.4z M521.5,26.8l1.2-5.8h-21.9l-2,9.2h50.8l-6.5,31h-79.6l3.5-16.8h28.9
			l-1.2,5.9h21.9l2-9.1h-50.8l6.6-31.1H554l-3.6,16.8H521.5z M470.4,1.9h91l-1.1,4.9h-91L470.4,1.9z"/>
		<path class="st0" d="M585.6,64.4h91l-1,4.9h-91L585.6,64.4z M602.9,10h28.9l-4.3,20.1h21.9l4.3-20.1h28.9l-10.9,51.1h-28.9l4.3-20
			h-21.9l-4.3,20H592L602.9,10z M598.9,1.9h91l-1.1,4.9h-91L598.9,1.9z"/>
		<path class="st0" d="M693.7,49h55.1l-8.4,39.3h-55.1L693.7,49z M739.6,71.8l3.8-18.1H697l-2,9.3h16.8l0.6-2.9h12.8l-1.1,5.4h-29.6
			l-3.8,18.1h46.4l1.3-6.4h-29.6l1.1-5.3H739.6z"/>
		<path class="st0" d="M745.3,64.4h91l-1,4.9h-91L745.3,64.4z M762.5,10h79.6l-10.9,51.1h-79.6L762.5,10z M758.6,1.9h91l-1.1,4.9
			h-91L758.6,1.9z M782.9,50.2h21.9l6.2-29.2h-21.9L782.9,50.2z"/>
	</g>
	<g>
		<path class="st0" d="M16.6,89.3L14,101.9h-2.2L9.5,91.4l-2.3,10.6H5L2.4,89.3h1.7l2,11.1l2.4-11.1h1.8l2.5,11.1L15,89.3H16.6z"/>
		<path class="st0" d="M26.5,101.9l-1-3.2h-4.8l-1,3.2h-1.8l4-12.6h2.2l4,12.6H26.5z M21.2,97.3h3.9l-2-6.6L21.2,97.3z"/>
		<path class="st0" d="M37.7,89.3l-0.2,1.5h-3.5v11.1h-1.7V90.8h-3.6v-1.5H37.7z"/>
		<path class="st0" d="M47.5,89.3l-0.2,1.4h-4.9v4.1h4.2v1.4h-4.2v4.3h5.2v1.4h-7V89.3H47.5z"/>
		<path class="st0" d="M55.1,96.6h-2v5.3h-1.7V89.3h3.3c1.6,0,2.8,0.3,3.6,0.9c0.8,0.6,1.2,1.5,1.2,2.7c0,0.9-0.2,1.6-0.7,2.1
			c-0.5,0.5-1.1,1-2.1,1.2l3.4,5.7h-2.1L55.1,96.6z M54.9,95.2c0.9,0,1.6-0.2,2.1-0.6c0.5-0.4,0.7-1,0.7-1.8c0-0.8-0.2-1.3-0.7-1.7
			c-0.5-0.3-1.2-0.5-2.3-0.5h-1.6v4.6H54.9z"/>
		<path class="st0" d="M74.4,89.4c0.6,0.2,1.2,0.6,1.7,1.1l-1,1.1c-0.5-0.4-0.9-0.7-1.4-0.8c-0.5-0.2-0.9-0.3-1.5-0.3
			c-0.7,0-1.2,0.2-1.6,0.5s-0.6,0.8-0.6,1.3c0,0.4,0.1,0.7,0.2,0.9c0.1,0.3,0.4,0.5,0.8,0.7c0.4,0.2,1,0.4,1.7,0.7
			c0.8,0.2,1.5,0.5,2,0.8c0.5,0.3,0.9,0.7,1.3,1.2c0.3,0.5,0.5,1.1,0.5,1.9c0,0.7-0.2,1.4-0.5,1.9s-0.9,1-1.6,1.3s-1.5,0.5-2.4,0.5
			c-1.7,0-3.2-0.5-4.3-1.6l1-1.1c0.5,0.4,1,0.7,1.6,0.9c0.5,0.2,1.1,0.3,1.8,0.3c0.8,0,1.4-0.2,1.9-0.6c0.5-0.4,0.8-0.9,0.8-1.7
			c0-0.4-0.1-0.8-0.2-1c-0.2-0.3-0.4-0.5-0.8-0.7c-0.4-0.2-0.9-0.4-1.7-0.7c-1.3-0.4-2.2-0.9-2.8-1.4s-0.9-1.3-0.9-2.2
			c0-0.6,0.2-1.2,0.5-1.7c0.3-0.5,0.8-0.9,1.4-1.2c0.6-0.3,1.3-0.4,2.1-0.4C73.1,89.1,73.8,89.2,74.4,89.4z"/>
		<path class="st0" d="M86.9,89.3l-0.2,1.4h-4.9v4.1H86v1.4h-4.2v4.3H87v1.4h-7V89.3H86.9z"/>
		<path class="st0" d="M94.4,96.6h-2v5.3h-1.7V89.3h3.3c1.6,0,2.8,0.3,3.6,0.9c0.8,0.6,1.2,1.5,1.2,2.7c0,0.9-0.2,1.6-0.7,2.1
			c-0.5,0.5-1.1,1-2.1,1.2l3.4,5.7h-2.1L94.4,96.6z M94.2,95.2c0.9,0,1.6-0.2,2.1-0.6c0.5-0.4,0.7-1,0.7-1.8c0-0.8-0.2-1.3-0.7-1.7
			c-0.5-0.3-1.2-0.5-2.3-0.5h-1.6v4.6H94.2z"/>
		<path class="st0" d="M104.5,89.3v12.6h-1.7V89.3H104.5z"/>
		<path class="st0" d="M115.9,89.3l-0.2,1.4h-4.9v4.1h4.2v1.4h-4.2v4.3h5.2v1.4h-7V89.3H115.9z"/>
		<path class="st0" d="M124.8,89.4c0.6,0.2,1.2,0.6,1.7,1.1l-1,1.1c-0.5-0.4-0.9-0.7-1.4-0.8c-0.5-0.2-0.9-0.3-1.5-0.3
			c-0.7,0-1.2,0.2-1.6,0.5s-0.6,0.8-0.6,1.3c0,0.4,0.1,0.7,0.2,0.9c0.1,0.3,0.4,0.5,0.8,0.7c0.4,0.2,1,0.4,1.7,0.7
			c0.8,0.2,1.5,0.5,2,0.8c0.5,0.3,0.9,0.7,1.3,1.2c0.3,0.5,0.5,1.1,0.5,1.9c0,0.7-0.2,1.4-0.5,1.9s-0.9,1-1.6,1.3s-1.5,0.5-2.4,0.5
			c-1.7,0-3.2-0.5-4.3-1.6l1-1.1c0.5,0.4,1,0.7,1.6,0.9c0.5,0.2,1.1,0.3,1.8,0.3c0.8,0,1.4-0.2,1.9-0.6c0.5-0.4,0.8-0.9,0.8-1.7
			c0-0.4-0.1-0.8-0.2-1c-0.2-0.3-0.4-0.5-0.8-0.7c-0.4-0.2-0.9-0.4-1.7-0.7c-1.3-0.4-2.2-0.9-2.8-1.4s-0.9-1.3-0.9-2.2
			c0-0.6,0.2-1.2,0.5-1.7c0.3-0.5,0.8-0.9,1.4-1.2c0.6-0.3,1.3-0.4,2.1-0.4C123.5,89.1,124.2,89.2,124.8,89.4z"/>
	</g>
</g>
</svg>
